<svg width="16" height="16" viewBox="0 0 16 16" fill="none" xmlns="http://www.w3.org/2000/svg">
<g id="icon/outline/close">
<path id="Vector" d="M7.99903 8.70251L4.61703 12.0847C4.5247 12.1769 4.40864 12.2241 4.26886 12.2263C4.1292 12.2285 4.01103 12.1812 3.91436 12.0847C3.81781 11.988 3.76953 11.8709 3.76953 11.7333C3.76953 11.5958 3.81781 11.4787 3.91436 11.382L7.29653 8.00001L3.91436 4.61801C3.82214 4.52568 3.77492 4.40962 3.7727 4.26984C3.77059 4.13017 3.81781 4.01201 3.91436 3.91534C4.01103 3.81879 4.12814 3.77051 4.2657 3.77051C4.40325 3.77051 4.52036 3.81879 4.61703 3.91534L7.99903 7.29751L11.381 3.91534C11.4734 3.82312 11.5894 3.7759 11.7292 3.77367C11.8689 3.77156 11.987 3.81879 12.0837 3.91534C12.1803 4.01201 12.2285 4.12912 12.2285 4.26667C12.2285 4.40423 12.1803 4.52134 12.0837 4.61801L8.70153 8.00001L12.0837 11.382C12.1759 11.4743 12.2231 11.5904 12.2254 11.7302C12.2275 11.8698 12.1803 11.988 12.0837 12.0847C11.987 12.1812 11.8699 12.2295 11.7324 12.2295C11.5948 12.2295 11.4777 12.1812 11.381 12.0847L7.99903 8.70251Z" fill="white"/>
</g>
</svg>
